<?xml version="1.0" encoding="utf-8"?>
<!-- Generator: Adobe Illustrator 26.2.1, SVG Export Plug-In . SVG Version: 6.00 Build 0)  -->
<svg version="1.1" id="Layer_1" xmlns="http://www.w3.org/2000/svg" xmlns:xlink="http://www.w3.org/1999/xlink" x="0px" y="0px"
	 viewBox="0 0 102 102" style="enable-background:new 0 0 102 102;" xml:space="preserve">
<style type="text/css">
	.st0{fill:none;}
	.st1{fill:none;stroke:#707070;}
	.st2{fill:#51A98D;}
	.st3{fill:#292A2D;}
	.st4{fill:#FFFFFF;}
</style>
<g>
	<g id="사각형_2254" transform="translate(950 968)">
		<rect x="-949" y="-967" class="st0" width="100" height="100"/>
		<rect x="-948.8" y="-966.8" class="st0" width="99.5" height="99.5"/>
	</g>
	<path id="패스_9389" class="st1" d="M101,13.1v-12H89"/>
	<path id="패스_9392" class="st1" d="M1,88.9v12h12"/>
	<path id="패스_9390" class="st1" d="M13,1.1H1v12"/>
	<path id="패스_9391" class="st1" d="M89,100.9h12v-12"/>
</g>
<g>
	<path class="st2" d="M31,57.6c0.1,1.9,1.4,3.4,3.2,3.8C32.4,61.1,31.1,59.5,31,57.6z"/>
	<path class="st2" d="M71,35.5c0-2.1-1.7-3.9-3.8-4C69.3,31.6,71,33.3,71,35.5z"/>
	<path class="st2" d="M34.8,31.5c-2.1,0.1-3.8,1.8-3.8,4C31,33.3,32.7,31.6,34.8,31.5z"/>
	<path class="st2" d="M67.8,61.4c1.8-0.4,3.1-1.9,3.2-3.8C70.9,59.5,69.6,61.1,67.8,61.4z"/>
	<path class="st2" d="M67,33.5H35c-1.1,0-2,0.9-2,2v22c0,1.1,0.9,2,2,2h32c1.1,0,2-0.9,2-2v-22C69,34.4,68.1,33.5,67,33.5z M46,51.3
		l-1.4,1.4l-6.2-6.2l6.2-6.2l1.4,1.4l-4.8,4.8L46,51.3z M57.5,52.7L56,51.3l4.8-4.8L56,41.7l1.4-1.4l6.2,6.2L57.5,52.7z"/>
	<path class="st3" d="M71,35.5c0-2.1-1.7-3.9-3.8-4c-0.1,0-0.1,0-0.2,0H35c-0.1,0-0.1,0-0.2,0c-2.1,0.1-3.8,1.8-3.8,4c0,0,0,0,0,0v0
		v22v0c0,0,0,0.1,0,0.1c0.1,1.9,1.4,3.4,3.2,3.8c0.3,0.1,0.5,0.1,0.8,0.1h8.6l0.5-2H58l0.5,2H67c0.3,0,0.5,0,0.8-0.1
		c1.8-0.4,3.1-1.9,3.2-3.8c0,0,0-0.1,0-0.1v0L71,35.5L71,35.5C71,35.5,71,35.5,71,35.5z M69,57.5c0,1.1-0.9,2-2,2H35
		c-1.1,0-2-0.9-2-2v-22c0-1.1,0.9-2,2-2h32c1.1,0,2,0.9,2,2V57.5z"/>
	<polygon class="st4" points="56.4,61.5 45.6,61.5 43.8,68.5 58.2,68.5 	"/>
	<rect x="41.2" y="70.5" class="st3" width="19.6" height="0"/>
	<polygon class="st3" points="58,59.5 44.1,59.5 43.6,61.5 41.8,68.5 43.8,68.5 45.6,61.5 56.4,61.5 58.2,68.5 60.3,68.5 58.5,61.5 
			"/>
	<polygon class="st3" points="58.2,68.5 43.8,68.5 41.8,68.5 41,68.5 41,70.5 41.2,70.5 60.8,70.5 61,70.5 61,68.5 60.3,68.5 	"/>
	<polygon class="st3" points="44.5,40.3 38.3,46.5 44.5,52.7 46,51.3 41.2,46.5 46,41.7 	"/>
	<polygon class="st3" points="56,41.7 60.8,46.5 56,51.3 57.5,52.7 63.7,46.5 57.5,40.3 	"/>
</g>
</svg>
