<?xml version="1.0" encoding="UTF-8"?><svg id="Layer_1" xmlns="http://www.w3.org/2000/svg" viewBox="0 0 346.69 26"><defs><style>.cls-1{fill:#fff;}.cls-2{fill:#039;}.cls-3{fill:#0082d5;}.cls-4{fill:#9c0;}</style></defs><g><path class="cls-1" d="m337.96,1.7v21.5h-14.8V1.7h14.8Zm-9.47,17.93h4.15V5.32h-4.15v14.31Zm12.79-18.33h5.42v23.4h-5.42V1.3Z"/><path class="cls-1" d="m124.57,23.77h-27.26v-3.62h27.26v3.62Zm-6.81-13.11v-5.22h-19.25V1.75h24.66v8.29c0,2.7-.25,5.74-.81,7.87h-5.42c.56-2.07.8-4.89.8-7.24Z"/><path class="cls-1" d="m139.87,15.7h-12.57V6.95h9.72v-2.06h-9.72V1.57h15.01v8.68h-9.75v2.16h8.02c2.54,0,3.96-.25,5.05-.82V1.3h5.42v16.98h-5.42v-3.5c-1.05.64-2.85.92-5.76.92Zm11.55,5.48v3.52h-22.51v-7.78h5.42v4.26h17.09Z"/><path class="cls-1" d="m186.24,19.19h-4.96v-3.65h25.94v3.65h-4.93v5.51h-5.3v-5.51h-5.4v5.51h-5.34v-5.51Zm15.54-9.51h4.5v3.6h-24.07v-3.6h3.94v-4.78h-3.47V1.3h23.14v3.6h-3.51v1.75c0,1.1-.19,2.28-.53,3.03Zm-4.84-4.78h-5.4v4.78h4.93c.31-.73.47-1.83.47-2.8v-1.98Z"/><path class="cls-1" d="m269.96,13.71h-3.56v-3.62h3.72c2.48,0,4.43-.1,5.76-.47.09-.75.12-1.5.12-2.32v-1.97h-9.44V1.7h14.8v5.09c0,9.69-4.64,14.88-14.95,16.68v-3.85c4.37-1,7.15-3.05,8.54-6.32-1.24.27-2.91.4-4.98.4Zm14.21-12.41h5.42v9.02h3.99v3.65h-3.99v10.74h-5.42V1.3Z"/><path class="cls-1" d="m254.26,1.3h5.42v9.02h3.99v3.65h-3.99v10.74h-5.42V1.3Zm-10.17.02c-4.35,0-7.88,3.53-7.88,7.88v6.47c0,4.35,3.53,7.88,7.88,7.88s7.88-3.53,7.88-7.88v-6.47c0-4.35-3.53-7.88-7.88-7.88Zm2.52,16.08c0,1.39-1.13,2.52-2.52,2.52s-2.52-1.13-2.52-2.52V7.47c0-1.39,1.13-2.52,2.52-2.52s2.52,1.13,2.52,2.52v9.94Z"/><path class="cls-1" d="m320.43,1.3v23.4h-4.8V1.3h4.8Zm-10.81,9.47h-4.73v2.99h4.73v3.11c-1.2.39-4.84,1.39-8.45,2.08V5.67h6.04v-3.54h-10.9v21.27s1.24,0,1.25,0c.28-.02.55-.03.83-.05,4.07-.32,7.79-1.29,11.23-3.73v4.96h4.47V1.57h-4.47v9.2Z"/><path class="cls-1" d="m228.14,24.7v-4.41s-.14.08-.14.08c-3.33,1.95-7.48,2.56-10.37,2.74-.92.06-2.02.09-3.16.09-1.6,0-3.21-.06-4.53-.17V1.6h17.07l-3.35,4.03h-8.39v4.66h7.56l-3.41,4.11h-4.14v4.82h.1c4.37-.15,10.16-1.28,12.7-1.99l.07-.02v-3.65h-6.54l3.62-4.35,2.92-.02V1.3h5.33v23.4h-5.33Z"/><g><path class="cls-1" d="m157.84,9.72h-3.03v-3.3h3.16c2.45,0,4.58-.02,5.91-.3.06-.35.12-.75.12-1.17h-9.19V1.57h14.52v2.45c0,.75-.06,1.45-.19,2.1h3.99V1.3h5.42v13.16h-5.42v-4.72h-5.48c-2.29,3.22-6.9,4.87-13.5,5.24v-3.42c3.53-.25,6.07-.85,7.68-2.05-1.18.15-2.57.2-3.99.2Z"/><path class="cls-1" d="m156.41,15.43v9.27h15.09l1.84-3.12v3.12h5.2v-9.27h-22.13Zm16.96,5.99h-11.79v-2.28h11.79v2.28Z"/></g></g><g><path class="cls-1" d="m46.38,5.04h-9.18V1.57h14.41v2.17c0,6.89-4.81,10.09-15.05,10.67v-3.52c6.72-.46,9.69-2.32,9.81-5.86Zm-8.05,14.58c0-1.32.67-2.39,1.85-3.18,1.97-1.32,5.36-1.88,9.36-1.88s7.33.56,9.3,1.88c1.21.78,1.88,1.86,1.88,3.18s-.67,2.44-1.88,3.22c-1.97,1.29-5.33,1.86-9.3,1.86s-7.39-.56-9.36-1.86c-1.18-.78-1.85-1.86-1.85-3.22Zm5.24,0c0,.39.24.71.67.98.85.49,2.63.68,5.3.68s4.39-.2,5.27-.68c.42-.27.67-.59.67-.98s-.24-.66-.67-.93c-.88-.49-2.66-.71-5.27-.71s-4.45.22-5.3.71c-.42.27-.67.54-.67.93ZM54.77,1.3h5.3v4.71h3.72v3.54h-3.72v4.74h-5.3V1.3Z"/><path class="cls-1" d="m77.51,12.88h-11.99V1.45h5.27v7.96h7.45c2.42,0,3.82-.22,4.85-.81V1.3h5.3v4.71h3.72v3.54h-3.72v4.54h-5.3v-2.15c-1.03.64-2.79.93-5.57.93Zm10.87,11.53h-21.38v-9.43h21.38v9.43Zm-5.27-3.35v-2.66h-10.9v2.66h10.9Z"/></g><g><path class="cls-1" d="m13,26c-7.17,0-13-5.83-13-13S5.83,0,13,0h12.06c.36,0,.7.21.85.54.15.33.1.72-.14,1l-5.15,6.03c-.18.21-.44.33-.71.33h-6.91c-2.81,0-5.1,2.29-5.1,5.1s2.29,5.1,5.1,5.1h5.82c-1.79-1.18-3.87-1.81-6.06-1.81-.36,0-.7-.21-.85-.55-.15-.33-.1-.72.14-1l3.09-3.62c.18-.21.44-.33.71-.33h9.21c.52,0,.94.42.94.94v13.34c0,.52-.42.94-.94.94h-12.06Z"/><path class="cls-3" d="m12.76,15.35c3.39,0,6.45,1.42,8.64,3.68h-8.4c-3.33,0-6.03-2.7-6.03-6.03s2.7-6.03,6.03-6.03h6.91L25.06.94h-12.06C6.34.94.94,6.34.94,13s5.4,12.06,12.06,12.06h12.06v-13.34h-9.21l-3.09,3.62Z"/><path class="cls-2" d="m19.03.94C12.47.94,7.14,6.17,6.97,12.69c.16-3.19,2.8-5.72,6.02-5.72h6.91L25.06.94h-6.03Z"/><path class="cls-2" d="m6.97,13.31c.17,6.52,5.5,11.75,12.05,11.75h6.03v-6.03h-12.06c-3.23,0-5.86-2.53-6.02-5.72Z"/><path class="cls-4" d="m15.85,11.73l-3.09,3.62c5.84.02,10.71,4.19,11.8,9.72h.5v-13.34h-9.21Z"/></g></svg>